<svg width="512" height="512" viewBox="0 0 512 512" fill="none" xmlns="http://www.w3.org/2000/svg">
<circle cx="256" cy="323" r="140" fill="white"/>
<path d="M431.14 257.07C438.924 277.503 442.816 298.909 442.816 320.315C442.816 422.479 358.165 505.184 256 505.184C152.862 505.184 69.1843 422.479 69.1843 320.315C69.1843 298.909 72.1033 277.503 79.8873 257.07L80.8603 255.124C113.942 163.662 168.43 81.93 238.486 15.7661L242.378 12.8471C245.297 8.95514 250.162 7.00914 256 7.00914C260.865 7.00914 265.73 8.95514 268.649 12.8471L272.541 15.7661C343.57 81.93 397.085 163.662 430.167 255.124L431.14 257.07ZM342.597 304.747L340.651 300.855C325.083 266.8 303.677 234.691 277.406 208.42L268.649 199.663C264.757 196.744 259.892 194.798 255.027 194.798C250.162 194.798 245.297 196.744 242.378 199.663L233.621 208.42C206.377 234.691 184.971 266.8 170.376 300.855L168.43 304.747C164.538 314.477 161.619 324.207 161.619 333.937C161.619 385.506 203.458 427.344 255.027 427.344C306.596 427.344 348.435 385.506 348.435 333.937C348.435 324.207 346.489 314.477 342.597 304.747Z" fill="#ECB127"/>
</svg>
